<svg width="38" height="38" viewBox="0 0 38 38" fill="none" xmlns="http://www.w3.org/2000/svg">
<path d="M13.0625 33.25C14.3742 33.25 15.4375 32.1867 15.4375 30.875C15.4375 29.5633 14.3742 28.5 13.0625 28.5C11.7508 28.5 10.6875 29.5633 10.6875 30.875C10.6875 32.1867 11.7508 33.25 13.0625 33.25Z" fill="#C3BDB0"/>
<path d="M29.6875 33.25C30.9992 33.25 32.0625 32.1867 32.0625 30.875C32.0625 29.5633 30.9992 28.5 29.6875 28.5C28.3758 28.5 27.3125 29.5633 27.3125 30.875C27.3125 32.1867 28.3758 33.25 29.6875 33.25Z" fill="#C3BDB0"/>
<path d="M12.4524 22.5625H31.8488L34.6988 8.3125H9.93715L9.30852 4.75H2.375V7.125H7.31648L10.879 27.3125H32.0625V24.9375H12.871L12.4524 22.5625Z" fill="#C3BDB0"/>
<circle cx="29.5" cy="9.5" r="8.5" fill="#A22B4D"/>
<path d="M26.7725 15L26.6152 13.8789L30.1494 9.95508C30.3864 9.69076 30.6143 9.34896 30.833 8.92969C31.0563 8.51042 31.2181 8.15495 31.3184 7.86328L31.4756 7.43262C31.4756 6.86751 31.3184 6.43001 31.0039 6.12012C30.6895 5.80566 30.2428 5.64844 29.6641 5.64844C28.6979 5.64844 27.9368 5.92871 27.3809 6.48926L26.9844 5.46387C27.6133 4.87142 28.5339 4.5752 29.7461 4.5752C30.6758 4.5752 31.4163 4.82812 31.9678 5.33398C32.5192 5.83529 32.7949 6.50749 32.7949 7.35059C32.7767 7.41439 32.7493 7.50098 32.7129 7.61035C32.6764 7.71517 32.5967 7.92253 32.4736 8.23242C32.3551 8.54232 32.2298 8.83626 32.0977 9.11426C31.9655 9.39225 31.7969 9.69759 31.5918 10.0303C31.3913 10.363 31.1862 10.641 30.9766 10.8643L28.0918 13.9473H32.8291L32.7539 15H26.7725Z" fill="#C3BDB0"/>
</svg>
