<svg width="122" height="140" viewBox="0 0 122 140" fill="none" xmlns="http://www.w3.org/2000/svg">
<path d="M122 140L0 0H68.0804L122 61.875V140Z" fill="#212121"/>
<path d="M66.3535 60V56.8262H59.8984V55.0879L65.6895 45.7617H68.9414V54.8926H70.6992L70.5723 56.8262H68.9414V60H66.3535ZM62.4375 54.9023H66.3535V48.2617L62.4375 54.9023ZM76.2461 57.7246C76.6172 58.0241 77.0632 58.1738 77.584 58.1738C78.1048 58.1738 78.5475 58.0241 78.9121 57.7246C79.2832 57.4251 79.5632 57.0117 79.752 56.4844C79.9473 55.9505 80.0872 55.3841 80.1719 54.7852C80.2565 54.1797 80.2988 53.5091 80.2988 52.7734C80.2988 49.2448 79.3939 47.4805 77.584 47.4805C75.7871 47.4805 74.8757 49.2318 74.8496 52.7344C74.8496 53.4766 74.8919 54.1504 74.9766 54.7559C75.0612 55.3613 75.2012 55.9342 75.3965 56.4746C75.5918 57.0085 75.875 57.4251 76.2461 57.7246ZM79.6641 59.8145C79.0521 60.0749 78.3587 60.2051 77.584 60.2051C76.8092 60.2051 76.1126 60.0749 75.4941 59.8145C74.8757 59.5475 74.3646 59.1895 73.9609 58.7402C73.5573 58.2845 73.2188 57.7409 72.9453 57.1094C72.6784 56.4779 72.4863 55.8105 72.3691 55.1074C72.2585 54.4043 72.2031 53.6523 72.2031 52.8516C72.2031 52.0378 72.2617 51.276 72.3789 50.5664C72.4961 49.8503 72.6914 49.1764 72.9648 48.5449C73.2383 47.9069 73.5768 47.3633 73.9805 46.9141C74.3906 46.4648 74.9017 46.11 75.5137 45.8496C76.1257 45.5827 76.8158 45.4492 77.584 45.4492C78.3522 45.4492 79.0423 45.5827 79.6543 45.8496C80.2663 46.11 80.7741 46.4681 81.1777 46.9238C81.5814 47.373 81.9167 47.9167 82.1836 48.5547C82.457 49.1862 82.6523 49.8568 82.7695 50.5664C82.8867 51.276 82.9453 52.0378 82.9453 52.8516C82.9453 53.6523 82.8867 54.4043 82.7695 55.1074C82.6589 55.8105 82.4701 56.4811 82.2031 57.1191C81.9362 57.7507 81.6009 58.291 81.1973 58.7402C80.7936 59.1895 80.2826 59.5475 79.6641 59.8145ZM87.877 51.8359C88.4434 51.8359 88.8698 51.6243 89.1562 51.2012C89.4492 50.778 89.5957 50.2311 89.5957 49.5605C89.5957 48.877 89.4492 48.3236 89.1562 47.9004C88.8698 47.4772 88.4466 47.2656 87.8867 47.2656C87.3268 47.2656 86.9036 47.4805 86.6172 47.9102C86.3307 48.3398 86.1875 48.8965 86.1875 49.5801C86.1875 50.2637 86.3275 50.8105 86.6074 51.2207C86.8939 51.6309 87.3171 51.8359 87.877 51.8359ZM87.8477 53.3887C86.7865 53.3887 85.9499 53.0306 85.3379 52.3145C84.7324 51.5983 84.4297 50.6868 84.4297 49.5801C84.4297 48.4733 84.7422 47.5553 85.3672 46.8262C85.9987 46.097 86.8418 45.7324 87.8965 45.7324C88.9967 45.7324 89.8626 46.0905 90.4941 46.8066C91.1257 47.5228 91.4414 48.4375 91.4414 49.5508C91.4414 50.651 91.1126 51.5658 90.4551 52.2949C89.7975 53.0241 88.9284 53.3887 87.8477 53.3887ZM86.9004 60.3125L95.6992 45.8398L97.8477 45.8496L88.9805 60.3125H86.9004ZM97.3984 58.6133C97.9844 58.6133 98.4238 58.4017 98.7168 57.9785C99.0163 57.5488 99.166 56.9954 99.166 56.3184C99.166 55.6413 99.0065 55.0977 98.6875 54.6875C98.375 54.2708 97.9062 54.0625 97.2812 54.0625C96.6562 54.0625 96.2201 54.2676 95.9727 54.6777C95.7253 55.0879 95.6016 55.651 95.6016 56.3672C95.6016 57.0443 95.7513 57.5879 96.0508 57.998C96.3568 58.4082 96.806 58.6133 97.3984 58.6133ZM97.3691 60.166C96.2493 60.166 95.3639 59.8079 94.7129 59.0918C94.0684 58.3691 93.7461 57.4609 93.7461 56.3672C93.7461 53.8021 94.9277 52.5195 97.291 52.5195C98.4564 52.5195 99.3483 52.8743 99.9668 53.584C100.592 54.2871 100.904 55.2018 100.904 56.3281C100.904 57.4284 100.585 58.3431 99.9473 59.0723C99.3158 59.8014 98.4564 60.166 97.3691 60.166Z" fill="#F0F0F0"/>
</svg>
