<svg width="61" height="61" viewBox="0 0 61 61" fill="none" xmlns="http://www.w3.org/2000/svg">
<path d="M60.5605 15.029C56.7641 7.46359 54.2037 3.24875 52.9494 2.50227C51.9571 1.91523 50.2417 1.7507 47.0415 1.48766C44.6456 1.29164 41.6658 1.04687 40.3302 0.523828L39.0709 0.03125L38.1995 1.06922C38.1334 1.14539 34.9789 4.75289 30.501 4.75289C25.9947 4.75289 22.829 1.10578 22.7975 1.0682L21.921 0.0414062L20.6687 0.524844C19.3332 1.04891 16.3544 1.29266 13.9595 1.48766C10.7583 1.7507 9.04187 1.91523 8.05266 2.50125C6.7943 3.24875 4.23391 7.46359 0.439531 15.029L0.03125 15.8415L0.38875 16.6794C3.74031 24.5535 11.6439 26.2852 11.9791 26.3552L13.0272 26.5736L11.9567 55.0537L11.913 56.2237L12.9114 56.8077C22.3852 62.3541 38.6118 62.3541 48.0866 56.8077L49.0849 56.2237L49.0402 55.0537L47.9698 26.5736L49.0179 26.3552C49.3531 26.2852 57.2566 24.5535 60.6092 16.6794L60.9688 15.8415L60.5605 15.029ZM55.4478 17.9977C53.2754 20.7825 50.6033 22.3232 47.4904 22.5913L45.8136 19.9324L47.137 55.1269C37.9364 60.5127 23.0636 60.5138 13.862 55.1269L15.1844 19.9324L13.5655 22.5273C10.4546 22.2592 7.78047 20.7165 5.61109 17.9347C4.63285 16.6642 3.83102 15.2673 3.22742 13.7818L3.16344 13.9037C4.81586 10.7156 7.98563 4.78539 9.01242 4.175C10.2627 3.43359 16.6316 3.47625 20.1477 2.67594C21.09 3.63605 22.1252 4.50019 23.2383 5.25563C24.2684 5.9529 25.3765 6.52725 26.5401 6.96695C27.9467 7.48899 29.3595 7.75305 30.7488 7.75305H30.7895C32.4703 7.74492 34.1207 7.35187 35.697 6.58C37.4367 5.72891 39.1034 4.40047 40.6634 2.63734C44.1388 3.4793 50.714 3.42039 51.9866 4.175C53.0093 4.78437 56.1628 10.677 57.8203 13.8732C57.219 15.3487 56.421 16.7361 55.4478 17.9977Z" fill="#C3BDB0"/>
</svg>
